<svg xmlns="http://www.w3.org/2000/svg" version="1.1" xmlns:xlink="http://www.w3.org/1999/xlink" xmlns:svgjs="http://svgjs.dev/svgjs" viewBox="0 0 800 800" width="800" height="800"><g stroke-width="2.75" stroke="hsl(261, 60%, 38%)" fill="none"><line x1="0" y1="0" x2="160" y2="160"></line><line x1="160" y1="0" x2="0" y2="160"></line><rect width="160" height="114.28571428571429" x="0" y="0" opacity="0.15"></rect><line x1="160" y1="0" x2="320" y2="160"></line><line x1="320" y1="0" x2="160" y2="160"></line><rect width="160" height="114.28571428571429" x="160" y="0" opacity="0.15"></rect><line x1="320" y1="0" x2="480" y2="160"></line><line x1="480" y1="0" x2="320" y2="160"></line><rect width="160" height="114.28571428571429" x="320" y="0" opacity="0.15"></rect><line x1="480" y1="0" x2="640" y2="160"></line><line x1="640" y1="0" x2="480" y2="160"></line><rect width="160" height="114.28571428571429" x="480" y="0" opacity="0.15"></rect><line x1="640" y1="0" x2="800" y2="160"></line><line x1="800" y1="0" x2="640" y2="160"></line><rect width="160" height="114.28571428571429" x="640" y="0" opacity="0.15"></rect><line x1="800" y1="0" x2="960" y2="160"></line><line x1="960" y1="0" x2="800" y2="160"></line><rect width="160" height="114.28571428571429" x="800" y="0" opacity="0.15"></rect><line x1="0" y1="114.28571428571429" x2="160" y2="274.2857142857143"></line><line x1="160" y1="114.28571428571429" x2="0" y2="274.2857142857143"></line><rect width="160" height="114.28571428571429" x="0" y="114.28571428571429" opacity="0.15"></rect><line x1="160" y1="114.28571428571429" x2="320" y2="274.2857142857143"></line><line x1="320" y1="114.28571428571429" x2="160" y2="274.2857142857143"></line><rect width="160" height="114.28571428571429" x="160" y="114.28571428571429" opacity="0.15"></rect><line x1="320" y1="114.28571428571429" x2="480" y2="274.2857142857143"></line><line x1="480" y1="114.28571428571429" x2="320" y2="274.2857142857143"></line><rect width="160" height="114.28571428571429" x="320" y="114.28571428571429" opacity="0.15"></rect><line x1="480" y1="114.28571428571429" x2="640" y2="274.2857142857143"></line><line x1="640" y1="114.28571428571429" x2="480" y2="274.2857142857143"></line><rect width="160" height="114.28571428571429" x="480" y="114.28571428571429" opacity="0.15"></rect><line x1="640" y1="114.28571428571429" x2="800" y2="274.2857142857143"></line><line x1="800" y1="114.28571428571429" x2="640" y2="274.2857142857143"></line><rect width="160" height="114.28571428571429" x="640" y="114.28571428571429" opacity="0.15"></rect><line x1="800" y1="114.28571428571429" x2="960" y2="274.2857142857143"></line><line x1="960" y1="114.28571428571429" x2="800" y2="274.2857142857143"></line><rect width="160" height="114.28571428571429" x="800" y="114.28571428571429" opacity="0.15"></rect><line x1="0" y1="228.57142857142858" x2="160" y2="388.57142857142856"></line><line x1="160" y1="228.57142857142858" x2="0" y2="388.57142857142856"></line><rect width="160" height="114.28571428571429" x="0" y="228.57142857142858" opacity="0.15"></rect><line x1="160" y1="228.57142857142858" x2="320" y2="388.57142857142856"></line><line x1="320" y1="228.57142857142858" x2="160" y2="388.57142857142856"></line><rect width="160" height="114.28571428571429" x="160" y="228.57142857142858" opacity="0.15"></rect><line x1="320" y1="228.57142857142858" x2="480" y2="388.57142857142856"></line><line x1="480" y1="228.57142857142858" x2="320" y2="388.57142857142856"></line><rect width="160" height="114.28571428571429" x="320" y="228.57142857142858" opacity="0.15"></rect><line x1="480" y1="228.57142857142858" x2="640" y2="388.57142857142856"></line><line x1="640" y1="228.57142857142858" x2="480" y2="388.57142857142856"></line><rect width="160" height="114.28571428571429" x="480" y="228.57142857142858" opacity="0.15"></rect><line x1="640" y1="228.57142857142858" x2="800" y2="388.57142857142856"></line><line x1="800" y1="228.57142857142858" x2="640" y2="388.57142857142856"></line><rect width="160" height="114.28571428571429" x="640" y="228.57142857142858" opacity="0.15"></rect><line x1="800" y1="228.57142857142858" x2="960" y2="388.57142857142856"></line><line x1="960" y1="228.57142857142858" x2="800" y2="388.57142857142856"></line><rect width="160" height="114.28571428571429" x="800" y="228.57142857142858" opacity="0.15"></rect><line x1="0" y1="342.8571428571429" x2="160" y2="502.8571428571429"></line><line x1="160" y1="342.8571428571429" x2="0" y2="502.8571428571429"></line><rect width="160" height="114.28571428571429" x="0" y="342.8571428571429" opacity="0.15"></rect><line x1="160" y1="342.8571428571429" x2="320" y2="502.8571428571429"></line><line x1="320" y1="342.8571428571429" x2="160" y2="502.8571428571429"></line><rect width="160" height="114.28571428571429" x="160" y="342.8571428571429" opacity="0.15"></rect><line x1="320" y1="342.8571428571429" x2="480" y2="502.8571428571429"></line><line x1="480" y1="342.8571428571429" x2="320" y2="502.8571428571429"></line><rect width="160" height="114.28571428571429" x="320" y="342.8571428571429" opacity="0.15"></rect><line x1="480" y1="342.8571428571429" x2="640" y2="502.8571428571429"></line><line x1="640" y1="342.8571428571429" x2="480" y2="502.8571428571429"></line><rect width="160" height="114.28571428571429" x="480" y="342.8571428571429" opacity="0.15"></rect><line x1="640" y1="342.8571428571429" x2="800" y2="502.8571428571429"></line><line x1="800" y1="342.8571428571429" x2="640" y2="502.8571428571429"></line><rect width="160" height="114.28571428571429" x="640" y="342.8571428571429" opacity="0.15"></rect><line x1="800" y1="342.8571428571429" x2="960" y2="502.8571428571429"></line><line x1="960" y1="342.8571428571429" x2="800" y2="502.8571428571429"></line><rect width="160" height="114.28571428571429" x="800" y="342.8571428571429" opacity="0.15"></rect><line x1="0" y1="457.14285714285717" x2="160" y2="617.1428571428571"></line><line x1="160" y1="457.14285714285717" x2="0" y2="617.1428571428571"></line><rect width="160" height="114.28571428571429" x="0" y="457.14285714285717" opacity="0.15"></rect><line x1="160" y1="457.14285714285717" x2="320" y2="617.1428571428571"></line><line x1="320" y1="457.14285714285717" x2="160" y2="617.1428571428571"></line><rect width="160" height="114.28571428571429" x="160" y="457.14285714285717" opacity="0.15"></rect><line x1="320" y1="457.14285714285717" x2="480" y2="617.1428571428571"></line><line x1="480" y1="457.14285714285717" x2="320" y2="617.1428571428571"></line><rect width="160" height="114.28571428571429" x="320" y="457.14285714285717" opacity="0.15"></rect><line x1="480" y1="457.14285714285717" x2="640" y2="617.1428571428571"></line><line x1="640" y1="457.14285714285717" x2="480" y2="617.1428571428571"></line><rect width="160" height="114.28571428571429" x="480" y="457.14285714285717" opacity="0.15"></rect><line x1="640" y1="457.14285714285717" x2="800" y2="617.1428571428571"></line><line x1="800" y1="457.14285714285717" x2="640" y2="617.1428571428571"></line><rect width="160" height="114.28571428571429" x="640" y="457.14285714285717" opacity="0.15"></rect><line x1="800" y1="457.14285714285717" x2="960" y2="617.1428571428571"></line><line x1="960" y1="457.14285714285717" x2="800" y2="617.1428571428571"></line><rect width="160" height="114.28571428571429" x="800" y="457.14285714285717" opacity="0.15"></rect><line x1="0" y1="571.4285714285714" x2="160" y2="731.4285714285714"></line><line x1="160" y1="571.4285714285714" x2="0" y2="731.4285714285714"></line><rect width="160" height="114.28571428571429" x="0" y="571.4285714285714" opacity="0.15"></rect><line x1="160" y1="571.4285714285714" x2="320" y2="731.4285714285714"></line><line x1="320" y1="571.4285714285714" x2="160" y2="731.4285714285714"></line><rect width="160" height="114.28571428571429" x="160" y="571.4285714285714" opacity="0.15"></rect><line x1="320" y1="571.4285714285714" x2="480" y2="731.4285714285714"></line><line x1="480" y1="571.4285714285714" x2="320" y2="731.4285714285714"></line><rect width="160" height="114.28571428571429" x="320" y="571.4285714285714" opacity="0.15"></rect><line x1="480" y1="571.4285714285714" x2="640" y2="731.4285714285714"></line><line x1="640" y1="571.4285714285714" x2="480" y2="731.4285714285714"></line><rect width="160" height="114.28571428571429" x="480" y="571.4285714285714" opacity="0.15"></rect><line x1="640" y1="571.4285714285714" x2="800" y2="731.4285714285714"></line><line x1="800" y1="571.4285714285714" x2="640" y2="731.4285714285714"></line><rect width="160" height="114.28571428571429" x="640" y="571.4285714285714" opacity="0.15"></rect><line x1="800" y1="571.4285714285714" x2="960" y2="731.4285714285714"></line><line x1="960" y1="571.4285714285714" x2="800" y2="731.4285714285714"></line><rect width="160" height="114.28571428571429" x="800" y="571.4285714285714" opacity="0.15"></rect><line x1="0" y1="685.7142857142858" x2="160" y2="845.7142857142858"></line><line x1="160" y1="685.7142857142858" x2="0" y2="845.7142857142858"></line><rect width="160" height="114.28571428571429" x="0" y="685.7142857142858" opacity="0.15"></rect><line x1="160" y1="685.7142857142858" x2="320" y2="845.7142857142858"></line><line x1="320" y1="685.7142857142858" x2="160" y2="845.7142857142858"></line><rect width="160" height="114.28571428571429" x="160" y="685.7142857142858" opacity="0.15"></rect><line x1="320" y1="685.7142857142858" x2="480" y2="845.7142857142858"></line><line x1="480" y1="685.7142857142858" x2="320" y2="845.7142857142858"></line><rect width="160" height="114.28571428571429" x="320" y="685.7142857142858" opacity="0.15"></rect><line x1="480" y1="685.7142857142858" x2="640" y2="845.7142857142858"></line><line x1="640" y1="685.7142857142858" x2="480" y2="845.7142857142858"></line><rect width="160" height="114.28571428571429" x="480" y="685.7142857142858" opacity="0.15"></rect><line x1="640" y1="685.7142857142858" x2="800" y2="845.7142857142858"></line><line x1="800" y1="685.7142857142858" x2="640" y2="845.7142857142858"></line><rect width="160" height="114.28571428571429" x="640" y="685.7142857142858" opacity="0.15"></rect><line x1="800" y1="685.7142857142858" x2="960" y2="845.7142857142858"></line><line x1="960" y1="685.7142857142858" x2="800" y2="845.7142857142858"></line><rect width="160" height="114.28571428571429" x="800" y="685.7142857142858" opacity="0.15"></rect><line x1="0" y1="800.0000000000001" x2="160" y2="960.0000000000001"></line><line x1="160" y1="800.0000000000001" x2="0" y2="960.0000000000001"></line><rect width="160" height="114.28571428571429" x="0" y="800.0000000000001" opacity="0.15"></rect><line x1="160" y1="800.0000000000001" x2="320" y2="960.0000000000001"></line><line x1="320" y1="800.0000000000001" x2="160" y2="960.0000000000001"></line><rect width="160" height="114.28571428571429" x="160" y="800.0000000000001" opacity="0.15"></rect><line x1="320" y1="800.0000000000001" x2="480" y2="960.0000000000001"></line><line x1="480" y1="800.0000000000001" x2="320" y2="960.0000000000001"></line><rect width="160" height="114.28571428571429" x="320" y="800.0000000000001" opacity="0.15"></rect><line x1="480" y1="800.0000000000001" x2="640" y2="960.0000000000001"></line><line x1="640" y1="800.0000000000001" x2="480" y2="960.0000000000001"></line><rect width="160" height="114.28571428571429" x="480" y="800.0000000000001" opacity="0.15"></rect><line x1="640" y1="800.0000000000001" x2="800" y2="960.0000000000001"></line><line x1="800" y1="800.0000000000001" x2="640" y2="960.0000000000001"></line><rect width="160" height="114.28571428571429" x="640" y="800.0000000000001" opacity="0.15"></rect><line x1="800" y1="800.0000000000001" x2="960" y2="960.0000000000001"></line><line x1="960" y1="800.0000000000001" x2="800" y2="960.0000000000001"></line><rect width="160" height="114.28571428571429" x="800" y="800.0000000000001" opacity="0.15"></rect></g></svg>